HIERARCHY
ROOT Hip
{
	OFFSET	0.0000	0.0000	0.0000
	CHANNELS 6 Xposition Yposition Zposition Xrotation Yrotation Zrotation
	JOINT LowerSpine
	{
		OFFSET	0.0000	8.3155	-4.4999
		CHANNELS 3 Xrotation Yrotation Zrotation
		JOINT MiddleSpine
		{
			OFFSET	0.0000	7.5885	0.3964
			CHANNELS 3 Xrotation Yrotation Zrotation
			JOINT Chest
			{
				OFFSET	0.0000	9.3899	-2.0901
				CHANNELS 3 Xrotation Yrotation Zrotation
				JOINT Neck
				{
					OFFSET	0.0000	21.1598	-0.4401
					CHANNELS 3 Xrotation Yrotation Zrotation
					JOINT Head
					{
						OFFSET	0.0000	11.9492	3.2502
						CHANNELS 3 Xrotation Yrotation Zrotation
						End Site
						{
							OFFSET	0.0001	16.6961	0.4984
						}
					}
				}
				JOINT LClavicle
				{
					OFFSET	2.1363	20.4203	6.9961
					CHANNELS 3 Xrotation Yrotation Zrotation
					JOINT LShoulder
					{
						OFFSET	12.4803	2.9290	-4.7394
						CHANNELS 3 Xrotation Yrotation Zrotation
						JOINT LForearm
						{
							OFFSET	26.5107	-0.0942	-0.2297
							CHANNELS 3 Xrotation Yrotation Zrotation
							JOINT LHand
							{
								OFFSET	22.1155	0.0642	-0.1324
								CHANNELS 3 Xrotation Yrotation Zrotation
								JOINT LFinger1
								{
									OFFSET	8.5713	0.7496	2.3806
									CHANNELS 3 Xrotation Yrotation Zrotation
									JOINT LFinger11
									{
										OFFSET	3.2061	-0.7818	0.5649
										CHANNELS 3 Xrotation Yrotation Zrotation
										JOINT LFinger12
										{
											OFFSET	2.1887	-0.5340	0.3858
											CHANNELS 3 Xrotation Yrotation Zrotation
											End Site
											{
												OFFSET	1.5575	-0.4649	0.2526
											}
										}
									}
								}
								JOINT LFinger2
								{
									OFFSET	8.6993	0.8657	0.2073
									CHANNELS 3 Xrotation Yrotation Zrotation
									JOINT LFinger21
									{
										OFFSET	3.9642	0.0111	-0.0234
										CHANNELS 3 Xrotation Yrotation Zrotation
										JOINT LFinger22
										{
											OFFSET	2.1972	0.0067	-0.0134
											CHANNELS 3 Xrotation Yrotation Zrotation
											End Site
											{
												OFFSET	1.9736	-0.1394	0.0027
											}
										}
									}
								}
								JOINT LFinger3
								{
									OFFSET	8.2443	0.5776	-1.9504
									CHANNELS 3 Xrotation Yrotation Zrotation
									JOINT LFinger31
									{
										OFFSET	3.5971	-0.1821	-0.2252
										CHANNELS 3 Xrotation Yrotation Zrotation
										JOINT LFinger32
										{
											OFFSET	2.0497	-0.1031	-0.1288
											CHANNELS 3 Xrotation Yrotation Zrotation
											End Site
											{
												OFFSET	1.8124	-0.2228	-0.0857
											}
										}
									}
								}
								JOINT LFinger4
								{
									OFFSET	7.6504	-0.5814	-3.3685
									CHANNELS 3 Xrotation Yrotation Zrotation
									JOINT LFinger41
									{
										OFFSET	2.2125	-0.4614	-0.6108
										CHANNELS 3 Xrotation Yrotation Zrotation
										JOINT LFinger42
										{
											OFFSET	1.6225	-0.3379	-0.4481
											CHANNELS 3 Xrotation Yrotation Zrotation
											End Site
											{
												OFFSET	1.4401	-0.3957	-0.3304
											}
										}
									}
								}
								JOINT LFinger0
								{
									OFFSET	1.7730	-1.3420	1.3441
									CHANNELS 3 Xrotation Yrotation Zrotation
									JOINT LFinger01
									{
										OFFSET	3.3012	-1.0843	2.4890
										CHANNELS 3 Xrotation Yrotation Zrotation
										JOINT LFinger02
										{
											OFFSET	2.1738	-0.7778	1.5662
											CHANNELS 3 Xrotation Yrotation Zrotation
											End Site
											{
												OFFSET	1.5985	-0.5503	1.0946
											}
										}
									}
								}
							}
						}
					}
				}
				JOINT RClavicle
				{
					OFFSET	-2.1363	20.4203	6.9961
					CHANNELS 3 Xrotation Yrotation Zrotation
					JOINT RShoulder
					{
						OFFSET	-12.4825	2.9295	-4.7402
						CHANNELS 3 Xrotation Yrotation Zrotation
						JOINT RForearm
						{
							OFFSET	-26.5107	-0.0941	-0.2297
							CHANNELS 3 Xrotation Yrotation Zrotation
							JOINT RHand
							{
								OFFSET	-22.1155	0.0642	-0.1324
								CHANNELS 3 Xrotation Yrotation Zrotation
								JOINT RFinger1
								{
									OFFSET	-8.5713	0.7496	2.3806
									CHANNELS 3 Xrotation Yrotation Zrotation
									JOINT RFinger11
									{
										OFFSET	-3.2061	-0.7818	0.5649
										CHANNELS 3 Xrotation Yrotation Zrotation
										JOINT RFinger12
										{
											OFFSET	-2.1887	-0.5340	0.3858
											CHANNELS 3 Xrotation Yrotation Zrotation
											End Site
											{
												OFFSET	-1.5575	-0.4649	0.2526
											}
										}
									}
								}
								JOINT RFinger2
								{
									OFFSET	-8.6993	0.8657	0.2073
									CHANNELS 3 Xrotation Yrotation Zrotation
									JOINT RFinger21
									{
										OFFSET	-3.9642	0.0111	-0.0234
										CHANNELS 3 Xrotation Yrotation Zrotation
										JOINT RFinger22
										{
											OFFSET	-2.1972	0.0067	-0.0134
											CHANNELS 3 Xrotation Yrotation Zrotation
											End Site
											{
												OFFSET	-1.9736	-0.1394	0.0027
											}
										}
									}
								}
								JOINT RFinger3
								{
									OFFSET	-8.2443	0.5776	-1.9504
									CHANNELS 3 Xrotation Yrotation Zrotation
									JOINT RFinger31
									{
										OFFSET	-3.5971	-0.1821	-0.2252
										CHANNELS 3 Xrotation Yrotation Zrotation
										JOINT RFinger32
										{
											OFFSET	-2.0497	-0.1031	-0.1288
											CHANNELS 3 Xrotation Yrotation Zrotation
											End Site
											{
												OFFSET	-1.8124	-0.2228	-0.0857
											}
										}
									}
								}
								JOINT RFinger4
								{
									OFFSET	-7.6504	-0.5814	-3.3685
									CHANNELS 3 Xrotation Yrotation Zrotation
									JOINT RFinger41
									{
										OFFSET	-2.2125	-0.4614	-0.6108
										CHANNELS 3 Xrotation Yrotation Zrotation
										JOINT RFinger42
										{
											OFFSET	-1.6225	-0.3379	-0.4481
											CHANNELS 3 Xrotation Yrotation Zrotation
											End Site
											{
												OFFSET	-1.4401	-0.3957	-0.3304
											}
										}
									}
								}
								JOINT RFinger0
								{
									OFFSET	-1.7730	-1.3420	1.3441
									CHANNELS 3 Xrotation Yrotation Zrotation
									JOINT RFinger01
									{
										OFFSET	-3.3012	-1.0843	2.4890
										CHANNELS 3 Xrotation Yrotation Zrotation
										JOINT RFinger02
										{
											OFFSET	-2.1738	-0.7778	1.5662
											CHANNELS 3 Xrotation Yrotation Zrotation
											End Site
											{
												OFFSET	-1.5985	-0.5503	1.0946
											}
										}
									}
								}
							}
						}
					}
				}
			}
		}
	}
	JOINT RThigh
	{
		OFFSET	-8.8955	3.7588	-0.7333
		CHANNELS 3 Xrotation Yrotation Zrotation
		JOINT RShin
		{
			OFFSET	-0.7118	-38.6915	0.0000
			CHANNELS 3 Xrotation Yrotation Zrotation
			JOINT RFoot
			{
				OFFSET	0.0000	-37.9926	0.0000
				CHANNELS 3 Xrotation Yrotation Zrotation
				JOINT RToe
				{
					OFFSET	0.0000	-4.1757	8.7320
					CHANNELS 3 Xrotation Yrotation Zrotation
					End Site
					{
						OFFSET	0.0000	0.0000	5.8580
					}
				}
			}
		}
	}
	JOINT LThigh
	{
		OFFSET	8.8954	3.7591	-0.7333
		CHANNELS 3 Xrotation Yrotation Zrotation
		JOINT LShin
		{
			OFFSET	0.7119	-38.6917	0.0000
			CHANNELS 3 Xrotation Yrotation Zrotation
			JOINT LFoot
			{
				OFFSET	0.0000	-37.9926	0.0000
				CHANNELS 3 Xrotation Yrotation Zrotation
				JOINT LToe
				{
					OFFSET	0.0000	-4.1757	8.7320
					CHANNELS 3 Xrotation Yrotation Zrotation
					End Site
					{
						OFFSET	0.0000	0.0000	5.8580
					}
				}
			}
		}
	}
}
MOTION
Frames:	6
Frame Time: 0.0333333000
	0.0000	79.2697	2.8200	0.000000	0.000000	0.000000	0.000000	0.000000	0.000000	0.000000	0.000000	0.000000	0.000000	0.000000	0.000000	0.000000	0.000000	0.000000	0.000000	0.000000	0.000000	0.000000	0.000000	0.000000	0.000000	0.000000	0.000000	0.000000	0.000000	0.000000	0.000000	0.000000	0.000000	0.000000	0.000000	0.000000	0.000000	0.000000	0.000000	0.000000	0.000000	0.000000	0.000000	0.000000	0.000000	0.000000	0.000000	0.000000	0.000000	0.000000	0.000000	0.000000	0.000000	0.000000	0.000000	0.000000	0.000000	0.000000	0.000000	0.000000	0.000000	0.000000	0.000000	0.000000	0.000000	0.000000	0.000000	0.000000	0.000000	0.000000	0.000000	0.000000	0.000000	0.000000	0.000000	0.000000	0.000000	0.000000	0.000000	0.000000	0.000000	0.000000	0.000000	0.000000	0.000000	0.000000	0.000000	0.000000	0.000000	0.000000	0.000000	0.000000	0.000000	0.000000	0.000000	0.000000	0.000000	0.000000	0.000000	0.000000	0.000000	0.000000	0.000000	0.000000	0.000000	0.000000	0.000000	0.000000	0.000000	0.000000	0.000000	0.000000	0.000000	0.000000	0.000000	0.000000	0.000000	0.000000	0.000000	0.000000	0.000000	0.000000	0.000000	0.000000	0.000000	0.000000	0.000000	0.000000	0.000000	0.000000	0.000000	0.000000	0.000000	0.000000	0.000000	0.000000	0.000000	0.000000	0.000000	0.000000	0.000000	0.000000	0.000000	0.000000	0.000000	0.000000	0.000000	0.000000	0.000000	0.000000	0.000000	0.000000	0.000000	0.000000	0.000000	0.000000	0.000000	0.000000	0.000000
	20.9703	80.5234	23.8885	-13.287890	-0.001700	-1.698702	0.000000	0.000000	0.000000	5.710639	-0.257137	0.663857	19.044720	-0.592141	2.287584	0.000000	0.000000	0.000000	0.000000	0.000000	0.000000	0.000000	0.000000	-15.290590	13.435230	-25.973960	-57.704810	0.797195	-34.048460	-0.071148	0.000000	0.000000	0.000000	0.000000	0.000000	0.000000	0.000000	0.000000	0.000000	0.000000	0.000000	0.000000	0.000000	0.000000	0.000000	0.000000	0.000000	0.000000	0.000000	0.000000	0.000000	0.000000	0.000000	0.000000	0.000000	0.000000	0.000000	0.000000	0.000000	0.000000	0.000000	0.000000	0.000000	0.000000	0.000000	0.000000	0.000000	0.000000	0.000000	0.000000	0.000000	0.000000	0.000000	0.000000	0.000000	0.000000	0.000000	0.000000	0.000000	0.000000	15.333460	10.138660	15.169730	60.631340	-8.724203	30.933690	-0.041763	0.000000	0.000000	0.000000	0.000000	0.000000	0.000000	0.000000	0.000000	0.000000	0.000000	0.000000	0.000000	0.000000	0.000000	0.000000	0.000000	0.000000	0.000000	0.000000	0.000000	0.000000	0.000000	0.000000	0.000000	0.000000	0.000000	0.000000	0.000000	0.000000	0.000000	0.000000	0.000000	0.000000	0.000000	0.000000	0.000000	0.000000	0.000000	0.000000	0.000000	0.000000	0.000000	0.000000	0.000000	0.000000	0.000000	0.000000	0.000000	15.784900	0.160367	1.457121	13.286440	0.001106	-0.028543	2.115792	-1.795755	-0.818047	-4.837498	0.000000	0.000000	19.160490	0.460238	0.529899	4.093895	0.094784	2.645073	-0.181209	1.412079	0.679312	-0.037110	0.000000	0.000000
	21.0880	80.5547	23.8310	-13.491030	-0.288165	-1.845736	0.000000	0.000000	0.000000	5.796319	-0.227725	0.662279	19.328800	-0.491439	2.271900	0.000000	0.000000	0.000000	0.000000	0.000000	0.000000	0.000000	0.000000	-15.194660	12.307170	-24.754900	-57.605030	-0.777864	-33.079610	-0.060580	0.000000	0.000000	0.000000	0.000000	0.000000	0.000000	0.000000	0.000000	0.000000	0.000000	0.000000	0.000000	0.000000	0.000000	0.000000	0.000000	0.000000	0.000000	0.000000	0.000000	0.000000	0.000000	0.000000	0.000000	0.000000	0.000000	0.000000	0.000000	0.000000	0.000000	0.000000	0.000000	0.000000	0.000000	0.000000	0.000000	0.000000	0.000000	0.000000	0.000000	0.000000	0.000000	0.000000	0.000000	0.000000	0.000000	0.000000	0.000000	0.000000	0.000000	15.108480	9.078886	13.759750	59.729210	-10.156740	31.316430	-0.030764	0.000000	0.000000	0.000000	0.000000	0.000000	0.000000	0.000000	0.000000	0.000000	0.000000	0.000000	0.000000	0.000000	0.000000	0.000000	0.000000	0.000000	0.000000	0.000000	0.000000	0.000000	0.000000	0.000000	0.000000	0.000000	0.000000	0.000000	0.000000	0.000000	0.000000	0.000000	0.000000	0.000000	0.000000	0.000000	0.000000	0.000000	0.000000	0.000000	0.000000	0.000000	0.000000	0.000000	0.000000	0.000000	0.000000	0.000000	0.000000	15.536070	0.095732	1.430129	13.960660	-0.070928	-0.014411	2.032628	-1.874851	-0.856255	-4.481248	0.000000	0.000000	19.402060	0.473977	0.572279	4.299213	0.087792	2.350832	-0.186131	1.302355	0.634286	-0.015235	0.000000	0.000000
	21.4244	80.6215	23.9108	-13.969270	-0.848839	-1.685123	0.000000	0.000000	0.000000	5.934502	-0.164446	0.609206	19.786430	-0.298048	2.073134	0.000000	0.000000	0.000000	0.000000	0.000000	0.000000	0.000000	0.000000	-15.066640	11.587730	-24.276550	-57.183290	-1.537560	-32.046140	-0.037658	0.000000	0.000000	0.000000	0.000000	0.000000	0.000000	0.000000	0.000000	0.000000	0.000000	0.000000	0.000000	0.000000	0.000000	0.000000	0.000000	0.000000	0.000000	0.000000	0.000000	0.000000	0.000000	0.000000	0.000000	0.000000	0.000000	0.000000	0.000000	0.000000	0.000000	0.000000	0.000000	0.000000	0.000000	0.000000	0.000000	0.000000	0.000000	0.000000	0.000000	0.000000	0.000000	0.000000	0.000000	0.000000	0.000000	0.000000	0.000000	0.000000	0.000000	14.946030	7.819255	12.690070	59.057960	-11.638080	30.974790	-0.030139	0.000000	0.000000	0.000000	0.000000	0.000000	0.000000	0.000000	0.000000	0.000000	0.000000	0.000000	0.000000	0.000000	0.000000	0.000000	0.000000	0.000000	0.000000	0.000000	0.000000	0.000000	0.000000	0.000000	0.000000	0.000000	0.000000	0.000000	0.000000	0.000000	0.000000	0.000000	0.000000	0.000000	0.000000	0.000000	0.000000	0.000000	0.000000	0.000000	0.000000	0.000000	0.000000	0.000000	0.000000	0.000000	0.000000	0.000000	0.000000	15.911820	-0.099200	0.731350	14.034970	-0.164891	0.008683	1.760031	-1.741076	-0.800574	-3.671094	0.000000	0.000000	20.010980	0.371399	-0.053895	4.527258	0.091180	2.317805	0.342845	1.053836	0.506204	-0.060938	0.000000	0.000000
	21.8135	80.6964	23.9563	-14.349340	-1.805632	-1.327460	0.000000	0.000000	0.000000	6.086269	-0.154432	0.500161	20.291560	-0.303250	1.709800	0.000000	0.000000	0.000000	0.000000	0.000000	0.000000	0.000000	0.000000	-14.919320	11.334780	-23.445260	-56.751070	-2.061186	-31.950070	-0.018340	0.000000	0.000000	0.000000	0.000000	0.000000	0.000000	0.000000	0.000000	0.000000	0.000000	0.000000	0.000000	0.000000	0.000000	0.000000	0.000000	0.000000	0.000000	0.000000	0.000000	0.000000	0.000000	0.000000	0.000000	0.000000	0.000000	0.000000	0.000000	0.000000	0.000000	0.000000	0.000000	0.000000	0.000000	0.000000	0.000000	0.000000	0.000000	0.000000	0.000000	0.000000	0.000000	0.000000	0.000000	0.000000	0.000000	0.000000	0.000000	0.000000	0.000000	14.900890	6.038666	11.546080	58.925040	-13.813290	30.829890	-0.068057	0.000000	0.000000	0.000000	0.000000	0.000000	0.000000	0.000000	0.000000	0.000000	0.000000	0.000000	0.000000	0.000000	0.000000	0.000000	0.000000	0.000000	0.000000	0.000000	0.000000	0.000000	0.000000	0.000000	0.000000	0.000000	0.000000	0.000000	0.000000	0.000000	0.000000	0.000000	0.000000	0.000000	0.000000	0.000000	0.000000	0.000000	0.000000	0.000000	0.000000	0.000000	0.000000	0.000000	0.000000	0.000000	0.000000	0.000000	0.000000	16.218350	-0.298545	-0.359865	13.672240	-0.198045	0.017427	1.745041	-1.645931	-0.759943	-3.480456	0.000000	0.000000	20.427560	0.209925	-0.964281	4.636629	0.091625	2.257985	0.786106	0.743747	0.349908	-0.091407	0.000000	0.000000
	22.0780	80.7906	23.8715	-14.435820	-2.859329	-0.892099	0.000000	0.000000	0.000000	6.238815	-0.254197	0.320718	20.801970	-0.701241	1.161923	0.000000	0.000000	0.000000	0.000000	0.000000	0.000000	0.000000	0.000000	-14.735310	11.433340	-21.888290	-56.299840	-2.642064	-33.220600	-0.014432	0.000000	0.000000	0.000000	0.000000	0.000000	0.000000	0.000000	0.000000	0.000000	0.000000	0.000000	0.000000	0.000000	0.000000	0.000000	0.000000	0.000000	0.000000	0.000000	0.000000	0.000000	0.000000	0.000000	0.000000	0.000000	0.000000	0.000000	0.000000	0.000000	0.000000	0.000000	0.000000	0.000000	0.000000	0.000000	0.000000	0.000000	0.000000	0.000000	0.000000	0.000000	0.000000	0.000000	0.000000	0.000000	0.000000	0.000000	0.000000	0.000000	0.000000	14.984430	4.042079	10.622960	59.340750	-16.279050	31.367240	-0.105560	0.000000	0.000000	0.000000	0.000000	0.000000	0.000000	0.000000	0.000000	0.000000	0.000000	0.000000	0.000000	0.000000	0.000000	0.000000	0.000000	0.000000	0.000000	0.000000	0.000000	0.000000	0.000000	0.000000	0.000000	0.000000	0.000000	0.000000	0.000000	0.000000	0.000000	0.000000	0.000000	0.000000	0.000000	0.000000	0.000000	0.000000	0.000000	0.000000	0.000000	0.000000	0.000000	0.000000	0.000000	0.000000	0.000000	0.000000	0.000000	15.831950	-0.466867	-1.436299	13.597850	-0.220095	0.026523	2.099669	-1.554097	-0.712904	-3.978063	0.000000	0.000000	20.471470	0.048940	-1.846938	4.637202	0.086653	2.136939	1.128693	0.606164	0.286364	-0.139063	0.000000	0.000000
